<svg width="710" height="454" viewBox="0 0 710 454" fill="none" xmlns="http://www.w3.org/2000/svg">
<g clip-path="url(#clip0_226_427)">
<path d="M516.172 34.4842H50.8789C50.4064 34.4741 49.9567 34.2794 49.6261 33.9417C49.2955 33.6039 49.1104 33.1502 49.1104 32.6776C49.1104 32.205 49.2955 31.7512 49.6261 31.4135C49.9567 31.0758 50.4064 30.8811 50.8789 30.871H516.172C516.644 30.8811 517.094 31.0758 517.425 31.4135C517.755 31.7512 517.94 32.205 517.94 32.6776C517.94 33.1502 517.755 33.6039 517.425 33.9417C517.094 34.2794 516.644 34.4741 516.172 34.4842Z" fill="#CACACA"/>
<path d="M81.8031 21.6469C87.6504 21.6469 92.3906 16.8011 92.3906 10.8235C92.3906 4.84582 87.6504 0 81.8031 0C75.9558 0 71.2156 4.84582 71.2156 10.8235C71.2156 16.8011 75.9558 21.6469 81.8031 21.6469Z" fill="#3F3D56"/>
<path d="M118.378 21.6469C124.225 21.6469 128.966 16.8011 128.966 10.8235C128.966 4.84582 124.225 0 118.378 0C112.531 0 107.791 4.84582 107.791 10.8235C107.791 16.8011 112.531 21.6469 118.378 21.6469Z" fill="#3F3D56"/>
<path d="M154.953 21.6469C160.801 21.6469 165.541 16.8011 165.541 10.8235C165.541 4.84582 160.801 0 154.953 0C149.106 0 144.366 4.84582 144.366 10.8235C144.366 16.8011 149.106 21.6469 154.953 21.6469Z" fill="#3F3D56"/>
<path d="M494.15 2.68269H468.169C467.654 2.69295 467.164 2.90473 466.803 3.27254C466.443 3.64035 466.241 4.13487 466.241 4.64993C466.241 5.16499 466.443 5.65952 466.803 6.02733C467.164 6.39514 467.654 6.6069 468.169 6.61716H494.15C494.665 6.6069 495.156 6.39514 495.516 6.02733C495.877 5.65952 496.079 5.16499 496.079 4.64993C496.079 4.13487 495.877 3.64035 495.516 3.27254C495.156 2.90473 494.665 2.69295 494.15 2.68269Z" fill="#3F3D56"/>
<path d="M494.15 10.0671H468.169C467.654 10.0773 467.164 10.2891 466.803 10.6569C466.443 11.0247 466.241 11.5192 466.241 12.0343C466.241 12.5494 466.443 13.0439 466.803 13.4117C467.164 13.7795 467.654 13.9913 468.169 14.0015H494.15C494.665 13.9913 495.156 13.7795 495.516 13.4117C495.877 13.0439 496.079 12.5494 496.079 12.0343C496.079 11.5192 495.877 11.0247 495.516 10.6569C495.156 10.2891 494.665 10.0773 494.15 10.0671Z" fill="#3F3D56"/>
<path d="M494.15 17.4417H468.169C467.654 17.452 467.164 17.6638 466.803 18.0316C466.443 18.3994 466.241 18.8939 466.241 19.409C466.241 19.924 466.443 20.4186 466.803 20.7864C467.164 21.1542 467.654 21.366 468.169 21.3762H494.15C494.665 21.366 495.156 21.1542 495.516 20.7864C495.877 20.4186 496.079 19.924 496.079 19.409C496.079 18.8939 495.877 18.3994 495.516 18.0316C495.156 17.6638 494.665 17.452 494.15 17.4417Z" fill="#3F3D56"/>
<path d="M178.834 362.186L179.471 132.266C179.489 127.612 181.353 123.156 184.652 119.874C187.952 116.593 192.419 114.754 197.072 114.762L370.713 115.243C375.367 115.261 379.823 117.125 383.104 120.425C386.386 123.724 388.224 128.191 388.217 132.844L387.579 362.765C387.561 367.418 385.698 371.874 382.398 375.156C379.098 378.437 374.632 380.276 369.978 380.268L196.337 379.787C191.684 379.769 187.228 377.905 183.946 374.606C180.665 371.306 178.826 366.839 178.834 362.186Z" fill="#E6E6E6"/>
<path d="M192.346 292.777L192.755 144.964C192.772 140.605 194.517 136.432 197.608 133.359C200.698 130.286 204.881 128.564 209.239 128.571L358.469 128.985C362.827 129.002 367.001 130.747 370.074 133.837C373.148 136.927 374.87 141.11 374.863 145.469L374.295 350.066C374.278 354.425 372.533 358.598 369.443 361.671C366.352 364.745 362.169 366.466 357.811 366.459L265.366 366.203C245.953 366.127 227.362 358.354 213.673 344.589C199.984 330.824 192.314 312.191 192.346 292.777Z" fill="white"/>
<path d="M341.706 243.96H225.345C223.493 243.96 221.717 243.224 220.408 241.915C219.099 240.606 218.363 238.83 218.363 236.978C218.363 235.127 219.099 233.351 220.408 232.042C221.717 230.732 223.493 229.997 225.345 229.997H341.706C343.557 229.997 345.333 230.732 346.643 232.042C347.952 233.351 348.687 235.127 348.687 236.978C348.687 238.83 347.952 240.606 346.643 241.915C345.333 243.224 343.557 243.96 341.706 243.96Z" fill="#6C63FF"/>
<path d="M250.944 205.672H225.345C223.493 205.672 221.717 204.937 220.408 203.627C219.099 202.318 218.363 200.542 218.363 198.69C218.363 196.839 219.099 195.063 220.408 193.754C221.717 192.444 223.493 191.709 225.345 191.709H250.944C252.796 191.709 254.572 192.444 255.881 193.754C257.19 195.063 257.926 196.839 257.926 198.69C257.926 200.542 257.19 202.318 255.881 203.627C254.572 204.937 252.796 205.672 250.944 205.672Z" fill="#6C63FF"/>
<path d="M341.706 305.346H225.345C223.493 305.346 221.717 304.611 220.408 303.301C219.099 301.992 218.363 300.216 218.363 298.365C218.363 296.513 219.099 294.737 220.408 293.428C221.717 292.119 223.493 291.383 225.345 291.383H341.706C343.557 291.383 345.333 292.119 346.643 293.428C347.952 294.737 348.687 296.513 348.687 298.365C348.687 300.216 347.952 301.992 346.643 303.301C345.333 304.611 343.557 305.346 341.706 305.346Z" fill="#6C63FF"/>
<path d="M341.706 274.653H225.345C223.493 274.653 221.717 273.918 220.408 272.608C219.099 271.299 218.363 269.523 218.363 267.672C218.363 265.82 219.099 264.044 220.408 262.735C221.717 261.425 223.493 260.69 225.345 260.69H341.706C343.557 260.69 345.333 261.425 346.643 262.735C347.952 264.044 348.687 265.82 348.687 267.672C348.687 269.523 347.952 271.299 346.643 272.608C345.333 273.918 343.557 274.653 341.706 274.653Z" fill="#6C63FF"/>
<path d="M27.78 453.762C43.1225 453.762 55.56 441.324 55.56 425.982C55.56 410.639 43.1225 398.202 27.78 398.202C12.4375 398.202 0 410.639 0 425.982C0 441.324 12.4375 453.762 27.78 453.762Z" fill="#6C63FF"/>
<path d="M23.9903 440.44C23.5106 440.44 23.0375 440.328 22.6084 440.114C22.1794 439.899 21.8062 439.587 21.5185 439.204L13.9397 429.098C13.6957 428.774 13.518 428.404 13.4169 428.011C13.3158 427.618 13.2932 427.208 13.3504 426.806C13.4076 426.404 13.5435 426.017 13.7503 425.668C13.9571 425.318 14.2308 425.013 14.5557 424.77C14.8806 424.526 15.2503 424.349 15.6437 424.248C16.0371 424.147 16.4465 424.125 16.8485 424.183C17.2505 424.241 17.6371 424.377 17.9864 424.584C18.3356 424.791 18.6406 425.065 18.8839 425.39L23.8422 432.001L36.577 412.899C37.032 412.218 37.7387 411.745 38.542 411.585C39.3452 411.425 40.1793 411.59 40.8608 412.044C41.5423 412.499 42.0156 413.205 42.1766 414.008C42.3376 414.811 42.1731 415.645 41.7194 416.327L26.5617 439.064C26.2875 439.475 25.9187 439.815 25.4863 440.054C25.0538 440.293 24.5703 440.425 24.0763 440.439C24.0476 440.439 24.0189 440.44 23.9903 440.44Z" fill="white"/>
<path d="M28.0276 365.11H26.0276V371.11H28.0276V365.11Z" fill="#2F2E41"/>
<path d="M28.0276 353.654H26.0276V342.198H28.0276V353.654ZM28.0276 330.741H26.0276V319.285H28.0276V330.741ZM28.0276 307.829H26.0276V296.372H28.0276V307.829ZM28.0276 284.916H26.0276V273.46H28.0276V284.916ZM28.0276 262.003H26.0276V250.547H28.0276V262.003Z" fill="#2F2E41"/>
<path d="M28.0281 239.091H26.0281V232.091H33.0281V234.091H28.0281V239.091Z" fill="#2F2E41"/>
<path d="M127.43 234.091H115.63V232.091H127.43V234.091ZM103.829 234.091H92.0291V232.091H103.829V234.091ZM80.2288 234.091H68.4285V232.091H80.2288V234.091ZM56.6282 234.091H44.8279V232.091H56.6282V234.091Z" fill="#2F2E41"/>
<path d="M145.231 232.091H139.231V234.091H145.231V232.091Z" fill="#2F2E41"/>
<path d="M671.34 304.762H669.34V310.762H671.34V304.762Z" fill="#2F2E41"/>
<path d="M671.34 291.628H669.34V278.494H671.34V291.628ZM671.34 265.359H669.34V252.226H671.34V265.359Z" fill="#2F2E41"/>
<path d="M671.34 239.091H669.34V234.091H664.34V232.091H671.34V239.091Z" fill="#2F2E41"/>
<path d="M651.908 234.091H639.476V232.091H651.908V234.091ZM627.045 234.091H614.613V232.091H627.045V234.091ZM602.181 234.091H589.749V232.091H602.181V234.091ZM577.318 234.091H564.886V232.091H577.318V234.091ZM552.454 234.091H540.022V232.091H552.454L552.454 234.091ZM527.591 234.091H515.159V232.091H527.591V234.091ZM502.727 234.091H490.296V232.091H502.727V234.091ZM477.864 234.091H465.432V232.091H477.864V234.091ZM453 234.091H440.569V232.091H453V234.091Z" fill="#2F2E41"/>
<path d="M428.137 232.091H422.137V234.091H428.137V232.091Z" fill="#2F2E41"/>
<path d="M670.969 383.762C686.311 383.762 698.749 371.324 698.749 355.982C698.749 340.639 686.311 328.202 670.969 328.202C655.626 328.202 643.189 340.639 643.189 355.982C643.189 371.324 655.626 383.762 670.969 383.762Z" fill="#6C63FF"/>
<path d="M676.434 355.982L681.899 350.517C682.621 349.792 683.026 348.809 683.025 347.786C683.024 346.763 682.617 345.781 681.893 345.058C681.169 344.334 680.188 343.927 679.164 343.926C678.141 343.925 677.159 344.33 676.434 345.052L670.969 350.517L665.504 345.052C664.778 344.33 663.796 343.925 662.773 343.926C661.749 343.927 660.768 344.334 660.044 345.058C659.321 345.781 658.914 346.763 658.913 347.786C658.912 348.809 659.317 349.792 660.039 350.517L665.504 355.982L660.039 361.447C659.678 361.805 659.391 362.231 659.196 362.701C659 363.17 658.899 363.673 658.898 364.182C658.897 364.691 658.996 365.194 659.191 365.664C659.385 366.134 659.67 366.561 660.03 366.921C660.389 367.281 660.816 367.566 661.286 367.76C661.756 367.954 662.26 368.054 662.768 368.053C663.277 368.052 663.78 367.951 664.25 367.755C664.719 367.559 665.145 367.273 665.504 366.912L670.969 361.447L676.434 366.912C676.792 367.273 677.218 367.559 677.688 367.755C678.157 367.951 678.66 368.052 679.169 368.053C679.677 368.054 680.181 367.954 680.651 367.76C681.121 367.566 681.548 367.281 681.908 366.921C682.267 366.561 682.552 366.134 682.747 365.664C682.941 365.194 683.04 364.691 683.04 364.182C683.039 363.673 682.938 363.17 682.742 362.701C682.546 362.231 682.259 361.805 681.899 361.447L676.434 355.982Z" fill="white"/>
<path d="M593.025 189.762L599.025 225.376L656.025 194.762L593.025 189.762Z" fill="#2F2E41"/>
<path d="M586.215 411.204L574.274 410.717L570.471 364.429L588.094 365.148L586.215 411.204Z" fill="#FFB6B6"/>
<path d="M587.025 278.762C608.685 272.158 613.13 243.925 625.025 237.762C624.995 222.851 625.595 176.61 610.71 177.49C602.42 177.981 556.234 262.521 554.254 276.527C550.581 302.513 570.192 368.836 567.917 373.392L590.691 374.834L590.824 373.041C591.185 368.179 594.815 353.518 590.674 350.945L589.105 349.97C589.119 344.914 590.222 336.302 585.662 334.119C585.604 334.091 585.553 334.052 585.511 334.003C585.469 333.954 585.438 333.897 585.42 333.835C585.402 333.773 585.397 333.709 585.406 333.645C585.414 333.581 585.436 333.52 585.469 333.465L587.025 278.762Z" fill="#2F2E41"/>
<path d="M592.367 421.561L584.382 422.032L582.513 414.577L579.307 422.331L558.128 423.58C557.113 423.64 556.105 423.373 555.252 422.82C554.399 422.267 553.745 421.455 553.386 420.504C553.027 419.552 552.981 418.511 553.255 417.532C553.53 416.553 554.11 415.687 554.911 415.061L571.135 402.383L570.686 394.762L588.537 394.775L592.367 421.561Z" fill="#2F2E41"/>
<path d="M677.229 327.78L689.141 328.745L698.531 283.261L680.951 281.836L677.229 327.78Z" fill="#FFB6B6"/>
<path d="M672.56 212.508C661.876 231.282 642.765 235.764 622.947 239.049C614.331 226.879 601.197 209.913 613.838 202.004C620.878 197.6 681.903 161.97 691.323 172.522C715.919 200.07 698.372 288.721 699.884 286.762L680.402 286.479L679.254 285.095C677.728 283.253 676.734 281.029 676.382 278.663C676.03 276.297 676.332 273.879 677.256 271.673L677.97 269.969C676.529 267.954 675.689 265.572 675.547 263.099C675.405 260.627 675.967 258.164 677.168 255.998L677.414 255.552L672.56 212.508Z" fill="#2F2E41"/>
<path d="M676.917 311.19L694.638 313.343L693.268 320.854L707.834 335.406C708.553 336.124 709.024 337.054 709.178 338.059C709.331 339.065 709.16 340.093 708.688 340.993C708.216 341.894 707.468 342.621 706.554 343.066C705.64 343.512 704.608 343.654 703.607 343.471L682.737 339.663L680.495 331.577L677.735 338.75L669.866 337.314L676.917 311.19Z" fill="#2F2E41"/>
<path d="M630.613 62.7618H622.438C620.768 62.7618 619.123 63.1666 617.644 63.9415C616.165 64.7164 614.896 65.8384 613.945 67.2112L608.025 75.7618L593.276 78.4444C588.152 81.6085 584.292 86.4603 582.361 92.164C580.43 97.8677 580.548 104.066 582.695 109.693C593.131 136.991 598.17 188.156 588.025 210.762C588.025 210.762 649.568 216.337 665.025 197.762C680.483 179.187 668.025 88.7618 668.025 88.7618L645.025 75.7618L639.106 67.2115C638.155 65.8386 636.886 64.7166 635.407 63.9416C633.928 63.1666 632.283 62.7618 630.613 62.7618Z" fill="#6C63FF"/>
<path d="M668.754 222.535C669.446 221.806 669.97 220.934 670.289 219.981C670.607 219.028 670.713 218.016 670.598 217.018C670.484 216.019 670.152 215.058 669.625 214.202C669.099 213.346 668.392 212.615 667.552 212.062L681.025 167.762L666.025 158.762L657.701 214.394C656.865 215.866 656.598 217.592 656.95 219.247C657.303 220.902 658.25 222.371 659.612 223.374C660.975 224.377 662.658 224.846 664.343 224.692C666.028 224.537 667.597 223.769 668.754 222.535Z" fill="#FFB6B6"/>
<path d="M682.025 172.762L664.025 165.762L664.794 156.775L643.407 109.958C642.35 107.644 641.815 105.126 641.841 102.582C641.866 100.038 642.452 97.5305 643.555 95.2382C644.659 92.9459 646.254 90.9247 648.226 89.318C650.199 87.7113 652.501 86.5586 654.969 85.9416C659.429 84.8323 664.146 85.5373 668.086 87.9019C672.026 90.2665 674.867 94.0975 675.986 98.5545L690.042 154.798C691.669 163.527 689.83 170.047 682.025 172.762Z" fill="#6C63FF"/>
<path d="M657.125 35.5118C657.125 27.4094 653.906 19.6389 648.177 13.9097C642.448 8.18043 634.677 4.96178 626.575 4.96178C618.473 4.96178 610.702 8.18043 604.973 13.9097C599.244 19.6389 596.025 27.4094 596.025 35.5118V54.6618C596.027 55.7487 596.459 56.7907 597.228 57.5593C597.996 58.3279 599.038 58.7603 600.125 58.7618H600.875C601.741 56.2805 602.269 53.6939 602.445 51.0718C604.023 53.4354 605.224 56.0296 606.005 58.7618H653.015C654.103 58.7607 655.146 58.3287 655.917 57.5603C656.687 56.7919 657.121 55.7497 657.125 54.6618C659.595 49.6218 660.705 43.8418 657.125 35.5118Z" fill="#2F2E41"/>
<path d="M625.344 58.573C637.714 58.573 647.742 48.5454 647.742 36.1757C647.742 23.8061 637.714 13.7784 625.344 13.7784C612.975 13.7784 602.947 23.8061 602.947 36.1757C602.947 48.5454 612.975 58.573 625.344 58.573Z" fill="#FFB8B8"/>
<path d="M602.332 36.0895C602.118 35.8425 601.96 35.5523 601.868 35.2387C601.776 34.9251 601.752 34.5954 601.799 34.2719L604.452 15.7969C604.504 15.421 604.65 15.0641 604.875 14.7586C605.1 14.453 605.398 14.2085 605.742 14.047C619.284 7.70911 633.016 7.70108 646.558 14.023C646.918 14.1933 647.227 14.4539 647.455 14.7794C647.683 15.1048 647.823 15.484 647.861 15.8798L650.632 30.3788C650.662 30.695 650.626 31.0141 650.526 31.3155C650.425 31.617 650.263 31.8942 650.05 32.1296C649.619 32.6033 649.016 43.0218 648.375 43.0218C648.916 36.812 647.608 33.8409 642.871 36.8758C642.438 36.8748 642.013 36.7506 641.647 36.5177C641.282 36.2849 640.99 35.9529 640.805 35.5605L638.867 31.407C638.741 31.1381 638.532 30.9173 638.27 30.7778C638.008 30.6384 637.708 30.5879 637.415 30.6341C637.121 30.6802 636.851 30.8205 636.645 31.0336C636.438 31.2468 636.307 31.5213 636.27 31.8158L635.887 34.8783C635.818 35.4295 635.55 35.9364 635.133 36.3041C634.717 36.6718 634.181 36.8751 633.625 36.8758C625.71 40.803 615.331 39.746 604.055 36.8758C603.728 36.8758 603.405 36.8057 603.108 36.67C602.811 36.5343 602.546 36.3364 602.332 36.0895Z" fill="#2F2E41"/>
<path d="M643.204 160.702H606.495C605.238 160.701 604.033 160.201 603.144 159.312C602.256 158.423 601.756 157.218 601.754 155.961V116.503C601.756 115.246 602.256 114.041 603.144 113.152C604.033 112.263 605.238 111.763 606.495 111.762H643.204C644.461 111.763 645.666 112.263 646.555 113.152C647.444 114.041 647.944 115.246 647.945 116.503V155.961C647.944 157.218 647.444 158.423 646.555 159.312C645.666 160.201 644.461 160.701 643.204 160.702Z" fill="#3F3D56"/>
<path d="M607.528 120.285C609.047 120.285 610.277 119.054 610.277 117.536C610.277 116.017 609.047 114.786 607.528 114.786C606.01 114.786 604.779 116.017 604.779 117.536C604.779 119.054 606.01 120.285 607.528 120.285Z" fill="#E6E6E6"/>
<path d="M607.528 119.185C608.439 119.185 609.178 118.447 609.178 117.536C609.178 116.625 608.439 115.886 607.528 115.886C606.617 115.886 605.878 116.625 605.878 117.536C605.878 118.447 606.617 119.185 607.528 119.185Z" fill="#3F3D56"/>
<path d="M649.716 134.108C648.9 135.014 647.896 135.731 646.773 136.207C645.651 136.683 644.437 136.907 643.219 136.863C642 136.819 640.806 136.509 639.721 135.954C638.635 135.399 637.684 134.612 636.936 133.65L604.025 142.762L599.025 131.762L638.82 121.514C640.52 120.363 642.583 119.876 644.618 120.144C646.653 120.413 648.519 121.419 649.862 122.971C651.205 124.524 651.932 126.515 651.905 128.568C651.878 130.62 651.099 132.592 649.716 134.108Z" fill="#FFB8B8"/>
<path d="M607.934 143.045L598.7 145.993C588.657 156.603 585.103 148.904 573.268 148.107C571.041 147.957 569.298 146.129 568.088 142.675C566.44 137.817 566.605 132.527 568.552 127.781L584.992 86.5769L591.873 80.9389L601.482 92.4528L594.105 124.107L606.215 130.279L607.934 143.045Z" fill="#6C63FF"/>
</g>
<defs>
<clipPath id="clip0_226_427">
<rect width="709.233" height="453.762" rx="20" fill="white"/>
</clipPath>
</defs>
</svg>
